<mxfile host="app.diagrams.net" agent="Mozilla/5.0 (Windows NT 10.0; Win64; x64) AppleWebKit/537.36 (KHTML, like Gecko) Chrome/122.0.0.0 Safari/537.36" version="24.7.17">
  <diagram name="Página-1" id="YWbWnNPhj2W-oV9U3KXU">
    <mxGraphModel dx="1356" dy="501" grid="1" gridSize="10" guides="1" tooltips="1" connect="1" arrows="1" fold="1" page="1" pageScale="1" pageWidth="827" pageHeight="1169" math="0" shadow="0">
      <root>
        <mxCell id="0" />
        <mxCell id="1" parent="0" />
        <mxCell id="m48hmGOw6F_rMbuYov7B-3" value="Cliente realiza o login no sistema" style="rounded=1;whiteSpace=wrap;html=1;" vertex="1" parent="1">
          <mxGeometry x="431" y="78" width="120" height="60" as="geometry" />
        </mxCell>
        <mxCell id="m48hmGOw6F_rMbuYov7B-4" value="" style="ellipse;html=1;shape=startState;fillColor=#000000;strokeColor=#ff0000;" vertex="1" parent="1">
          <mxGeometry x="330" y="93" width="30" height="30" as="geometry" />
        </mxCell>
        <mxCell id="m48hmGOw6F_rMbuYov7B-5" value="" style="edgeStyle=orthogonalEdgeStyle;html=1;verticalAlign=bottom;endArrow=open;endSize=8;strokeColor=#ff0000;rounded=0;exitX=1;exitY=0.5;exitDx=0;exitDy=0;entryX=0;entryY=0.5;entryDx=0;entryDy=0;" edge="1" source="m48hmGOw6F_rMbuYov7B-4" parent="1" target="m48hmGOw6F_rMbuYov7B-3">
          <mxGeometry relative="1" as="geometry">
            <mxPoint x="345" y="183" as="targetPoint" />
          </mxGeometry>
        </mxCell>
        <mxCell id="m48hmGOw6F_rMbuYov7B-6" value="Sistema exibe o menu inicial" style="rounded=1;whiteSpace=wrap;html=1;" vertex="1" parent="1">
          <mxGeometry x="601" y="78" width="120" height="60" as="geometry" />
        </mxCell>
        <mxCell id="m48hmGOw6F_rMbuYov7B-7" value="" style="edgeStyle=orthogonalEdgeStyle;html=1;verticalAlign=bottom;endArrow=open;endSize=8;strokeColor=#ff0000;rounded=0;exitX=1;exitY=0.5;exitDx=0;exitDy=0;entryX=0;entryY=0.5;entryDx=0;entryDy=0;" edge="1" parent="1" source="m48hmGOw6F_rMbuYov7B-3" target="m48hmGOw6F_rMbuYov7B-6">
          <mxGeometry relative="1" as="geometry">
            <mxPoint x="441" y="118" as="targetPoint" />
            <mxPoint x="371" y="118" as="sourcePoint" />
          </mxGeometry>
        </mxCell>
        <mxCell id="m48hmGOw6F_rMbuYov7B-26" value="Cliente acessa o catálogo de ações" style="rounded=1;whiteSpace=wrap;html=1;" vertex="1" parent="1">
          <mxGeometry x="936" y="128" width="120" height="60" as="geometry" />
        </mxCell>
        <mxCell id="m48hmGOw6F_rMbuYov7B-27" value="Catálogo de ações" style="rounded=1;whiteSpace=wrap;html=1;" vertex="1" parent="1">
          <mxGeometry x="1106" y="128" width="120" height="60" as="geometry" />
        </mxCell>
        <mxCell id="m48hmGOw6F_rMbuYov7B-28" value="Cliente seleciona a ação de seu interesse&amp;nbsp;" style="rounded=1;whiteSpace=wrap;html=1;" vertex="1" parent="1">
          <mxGeometry x="1106" y="243" width="120" height="60" as="geometry" />
        </mxCell>
        <mxCell id="m48hmGOw6F_rMbuYov7B-29" value="Sistema exibe as informações detalhadas da ação" style="rounded=1;whiteSpace=wrap;html=1;" vertex="1" parent="1">
          <mxGeometry x="936" y="243" width="120" height="60" as="geometry" />
        </mxCell>
        <mxCell id="m48hmGOw6F_rMbuYov7B-30" value="Cliente pressiona o botão &#39;simulação&#39;" style="rounded=1;whiteSpace=wrap;html=1;" vertex="1" parent="1">
          <mxGeometry x="766" y="243" width="120" height="60" as="geometry" />
        </mxCell>
        <mxCell id="m48hmGOw6F_rMbuYov7B-31" value="Sistema exibe input de unidades da ação e da data de retirada" style="rounded=1;whiteSpace=wrap;html=1;" vertex="1" parent="1">
          <mxGeometry x="596" y="243" width="120" height="60" as="geometry" />
        </mxCell>
        <mxCell id="m48hmGOw6F_rMbuYov7B-32" value="Sistema simula qual o provável valor da ação na data de retirada" style="rounded=1;whiteSpace=wrap;html=1;" vertex="1" parent="1">
          <mxGeometry x="766" y="353" width="120" height="60" as="geometry" />
        </mxCell>
        <mxCell id="m48hmGOw6F_rMbuYov7B-41" value="" style="edgeStyle=orthogonalEdgeStyle;html=1;verticalAlign=bottom;endArrow=open;endSize=8;strokeColor=#ff0000;rounded=0;exitX=1;exitY=0.5;exitDx=0;exitDy=0;entryX=0;entryY=0.5;entryDx=0;entryDy=0;" edge="1" parent="1" source="m48hmGOw6F_rMbuYov7B-26" target="m48hmGOw6F_rMbuYov7B-27">
          <mxGeometry relative="1" as="geometry">
            <mxPoint x="946" y="168" as="targetPoint" />
            <mxPoint x="896" y="168" as="sourcePoint" />
          </mxGeometry>
        </mxCell>
        <mxCell id="m48hmGOw6F_rMbuYov7B-42" value="" style="edgeStyle=orthogonalEdgeStyle;html=1;verticalAlign=bottom;endArrow=open;endSize=8;strokeColor=#ff0000;rounded=0;exitX=0.5;exitY=1;exitDx=0;exitDy=0;entryX=0.5;entryY=0;entryDx=0;entryDy=0;" edge="1" parent="1" source="m48hmGOw6F_rMbuYov7B-27" target="m48hmGOw6F_rMbuYov7B-28">
          <mxGeometry relative="1" as="geometry">
            <mxPoint x="956" y="178" as="targetPoint" />
            <mxPoint x="906" y="178" as="sourcePoint" />
          </mxGeometry>
        </mxCell>
        <mxCell id="m48hmGOw6F_rMbuYov7B-43" value="" style="edgeStyle=orthogonalEdgeStyle;html=1;verticalAlign=bottom;endArrow=open;endSize=8;strokeColor=#ff0000;rounded=0;exitX=0;exitY=0.5;exitDx=0;exitDy=0;entryX=1;entryY=0.5;entryDx=0;entryDy=0;" edge="1" parent="1" source="m48hmGOw6F_rMbuYov7B-28" target="m48hmGOw6F_rMbuYov7B-29">
          <mxGeometry relative="1" as="geometry">
            <mxPoint x="966" y="188" as="targetPoint" />
            <mxPoint x="916" y="188" as="sourcePoint" />
          </mxGeometry>
        </mxCell>
        <mxCell id="m48hmGOw6F_rMbuYov7B-44" value="" style="edgeStyle=orthogonalEdgeStyle;html=1;verticalAlign=bottom;endArrow=open;endSize=8;strokeColor=#ff0000;rounded=0;exitX=0;exitY=0.5;exitDx=0;exitDy=0;entryX=1;entryY=0.5;entryDx=0;entryDy=0;" edge="1" parent="1" source="m48hmGOw6F_rMbuYov7B-29" target="m48hmGOw6F_rMbuYov7B-30">
          <mxGeometry relative="1" as="geometry">
            <mxPoint x="976" y="198" as="targetPoint" />
            <mxPoint x="926" y="198" as="sourcePoint" />
          </mxGeometry>
        </mxCell>
        <mxCell id="m48hmGOw6F_rMbuYov7B-45" value="" style="edgeStyle=orthogonalEdgeStyle;html=1;verticalAlign=bottom;endArrow=open;endSize=8;strokeColor=#ff0000;rounded=0;exitX=0;exitY=0.5;exitDx=0;exitDy=0;entryX=1;entryY=0.5;entryDx=0;entryDy=0;" edge="1" parent="1" source="m48hmGOw6F_rMbuYov7B-30" target="m48hmGOw6F_rMbuYov7B-31">
          <mxGeometry relative="1" as="geometry">
            <mxPoint x="986" y="208" as="targetPoint" />
            <mxPoint x="936" y="208" as="sourcePoint" />
          </mxGeometry>
        </mxCell>
        <mxCell id="m48hmGOw6F_rMbuYov7B-54" value="" style="ellipse;html=1;shape=endState;fillColor=#000000;strokeColor=#ff0000;" vertex="1" parent="1">
          <mxGeometry x="1151" y="368" width="30" height="30" as="geometry" />
        </mxCell>
        <mxCell id="m48hmGOw6F_rMbuYov7B-57" value="Cliente preenche a quantidade de unidades da ação e a data de retirada" style="rounded=1;whiteSpace=wrap;html=1;" vertex="1" parent="1">
          <mxGeometry x="596" y="353" width="120" height="60" as="geometry" />
        </mxCell>
        <mxCell id="m48hmGOw6F_rMbuYov7B-58" value="" style="edgeStyle=orthogonalEdgeStyle;html=1;verticalAlign=bottom;endArrow=open;endSize=8;strokeColor=#ff0000;rounded=0;exitX=0.5;exitY=1;exitDx=0;exitDy=0;entryX=0.5;entryY=0;entryDx=0;entryDy=0;" edge="1" parent="1" source="m48hmGOw6F_rMbuYov7B-31" target="m48hmGOw6F_rMbuYov7B-57">
          <mxGeometry relative="1" as="geometry">
            <mxPoint x="726" y="283" as="targetPoint" />
            <mxPoint x="776" y="283" as="sourcePoint" />
          </mxGeometry>
        </mxCell>
        <mxCell id="m48hmGOw6F_rMbuYov7B-59" value="" style="edgeStyle=orthogonalEdgeStyle;html=1;verticalAlign=bottom;endArrow=open;endSize=8;strokeColor=#ff0000;rounded=0;exitX=1;exitY=0.5;exitDx=0;exitDy=0;entryX=0;entryY=0.5;entryDx=0;entryDy=0;" edge="1" parent="1" source="m48hmGOw6F_rMbuYov7B-57" target="m48hmGOw6F_rMbuYov7B-32">
          <mxGeometry relative="1" as="geometry">
            <mxPoint x="736" y="293" as="targetPoint" />
            <mxPoint x="786" y="293" as="sourcePoint" />
          </mxGeometry>
        </mxCell>
        <mxCell id="m48hmGOw6F_rMbuYov7B-60" value="O cliente pressiona &#39;finalizar&#39;" style="rounded=1;whiteSpace=wrap;html=1;" vertex="1" parent="1">
          <mxGeometry x="936" y="353" width="120" height="60" as="geometry" />
        </mxCell>
        <mxCell id="m48hmGOw6F_rMbuYov7B-61" value="" style="edgeStyle=orthogonalEdgeStyle;html=1;verticalAlign=bottom;endArrow=open;endSize=8;strokeColor=#ff0000;rounded=0;exitX=1;exitY=0.5;exitDx=0;exitDy=0;entryX=0;entryY=0.5;entryDx=0;entryDy=0;" edge="1" parent="1" source="m48hmGOw6F_rMbuYov7B-32" target="m48hmGOw6F_rMbuYov7B-60">
          <mxGeometry relative="1" as="geometry">
            <mxPoint x="776" y="393" as="targetPoint" />
            <mxPoint x="726" y="393" as="sourcePoint" />
          </mxGeometry>
        </mxCell>
        <mxCell id="m48hmGOw6F_rMbuYov7B-62" value="" style="edgeStyle=orthogonalEdgeStyle;html=1;verticalAlign=bottom;endArrow=open;endSize=8;strokeColor=#ff0000;rounded=0;exitX=1;exitY=0.5;exitDx=0;exitDy=0;entryX=0;entryY=0.5;entryDx=0;entryDy=0;" edge="1" parent="1" source="m48hmGOw6F_rMbuYov7B-60" target="m48hmGOw6F_rMbuYov7B-54">
          <mxGeometry relative="1" as="geometry">
            <mxPoint x="786" y="403" as="targetPoint" />
            <mxPoint x="736" y="403" as="sourcePoint" />
          </mxGeometry>
        </mxCell>
        <mxCell id="m48hmGOw6F_rMbuYov7B-63" value="" style="rhombus;whiteSpace=wrap;html=1;fontColor=#000000;fillColor=#ffffc0;strokeColor=#ff0000;" vertex="1" parent="1">
          <mxGeometry x="786" y="88" width="80" height="40" as="geometry" />
        </mxCell>
        <mxCell id="m48hmGOw6F_rMbuYov7B-68" value="Cliente acessa carteira de ações" style="rounded=1;whiteSpace=wrap;html=1;" vertex="1" parent="1">
          <mxGeometry x="936" y="28" width="120" height="60" as="geometry" />
        </mxCell>
        <mxCell id="m48hmGOw6F_rMbuYov7B-69" value="" style="edgeStyle=orthogonalEdgeStyle;html=1;verticalAlign=bottom;endArrow=open;endSize=8;strokeColor=#ff0000;rounded=0;exitX=1;exitY=0.5;exitDx=0;exitDy=0;entryX=0;entryY=0.5;entryDx=0;entryDy=0;" edge="1" parent="1" source="m48hmGOw6F_rMbuYov7B-6" target="m48hmGOw6F_rMbuYov7B-63">
          <mxGeometry relative="1" as="geometry">
            <mxPoint x="1116" y="168" as="targetPoint" />
            <mxPoint x="1066" y="168" as="sourcePoint" />
          </mxGeometry>
        </mxCell>
        <mxCell id="m48hmGOw6F_rMbuYov7B-70" value="" style="edgeStyle=orthogonalEdgeStyle;html=1;verticalAlign=bottom;endArrow=open;endSize=8;strokeColor=#ff0000;rounded=0;exitX=0.5;exitY=0;exitDx=0;exitDy=0;entryX=0;entryY=0.5;entryDx=0;entryDy=0;" edge="1" parent="1" source="m48hmGOw6F_rMbuYov7B-63" target="m48hmGOw6F_rMbuYov7B-68">
          <mxGeometry relative="1" as="geometry">
            <mxPoint x="1126" y="178" as="targetPoint" />
            <mxPoint x="1076" y="178" as="sourcePoint" />
          </mxGeometry>
        </mxCell>
        <mxCell id="m48hmGOw6F_rMbuYov7B-71" value="" style="edgeStyle=orthogonalEdgeStyle;html=1;verticalAlign=bottom;endArrow=open;endSize=8;strokeColor=#ff0000;rounded=0;exitX=0.5;exitY=1;exitDx=0;exitDy=0;entryX=0;entryY=0.5;entryDx=0;entryDy=0;" edge="1" parent="1" source="m48hmGOw6F_rMbuYov7B-63" target="m48hmGOw6F_rMbuYov7B-26">
          <mxGeometry relative="1" as="geometry">
            <mxPoint x="1136" y="188" as="targetPoint" />
            <mxPoint x="1086" y="188" as="sourcePoint" />
          </mxGeometry>
        </mxCell>
        <mxCell id="m48hmGOw6F_rMbuYov7B-72" value="" style="edgeStyle=orthogonalEdgeStyle;html=1;verticalAlign=bottom;endArrow=open;endSize=8;strokeColor=#ff0000;rounded=0;exitX=1;exitY=0.5;exitDx=0;exitDy=0;entryX=1;entryY=0.5;entryDx=0;entryDy=0;" edge="1" parent="1" source="m48hmGOw6F_rMbuYov7B-68" target="m48hmGOw6F_rMbuYov7B-28">
          <mxGeometry relative="1" as="geometry">
            <mxPoint x="1146" y="198" as="targetPoint" />
            <mxPoint x="1096" y="198" as="sourcePoint" />
            <Array as="points">
              <mxPoint x="1260" y="58" />
              <mxPoint x="1260" y="273" />
            </Array>
          </mxGeometry>
        </mxCell>
        <mxCell id="m48hmGOw6F_rMbuYov7B-73" value="Desvio" style="text;html=1;align=center;verticalAlign=middle;whiteSpace=wrap;rounded=0;" vertex="1" parent="1">
          <mxGeometry x="866" y="93" width="60" height="30" as="geometry" />
        </mxCell>
      </root>
    </mxGraphModel>
  </diagram>
</mxfile>
